<svg width="37" height="48" viewBox="0 0 37 48" fill="none" xmlns="http://www.w3.org/2000/svg">
<path d="M16.2591 3.91368L16.058 3.78922C13.7784 2.37342 11.773 1.12566 10.0542 0.497106C9.10664 0.125285 8.09367 -0.0410858 7.07971 0.0085794C6.01236 0.091766 4.99217 0.491974 4.14486 1.15988C2.38029 2.51033 1.61838 4.49867 1.20086 6.6986C0.795523 8.83007 0.640095 11.6056 0.448095 14.9849L0.438952 15.1591C0.323142 17.1817 0.25 19.1825 0.25 20.9966C0.25 22.8106 0.323142 24.8145 0.438952 26.8371L0.448095 27.0082C0.640095 30.3875 0.795523 33.1631 1.20086 35.2914C1.61838 37.4945 2.38029 39.4797 4.14486 40.8332C5.01648 41.5022 5.99476 41.9005 7.07971 41.9845C8.122 42.0623 9.12162 41.8383 10.0542 41.496C11.773 40.8675 13.7784 39.6197 16.058 38.207L16.2591 38.0826C17.5574 37.2735 18.8313 36.4427 19.9681 35.6244C21.3602 34.6132 22.7173 33.5525 24.0367 32.4443L24.189 32.3167C26.5174 30.3781 28.4923 28.7321 29.8576 27.114C31.3449 25.3404 32.25 23.4361 32.25 20.9966C32.25 18.557 31.3449 16.6496 29.8546 14.8791C28.4923 13.261 26.5174 11.6119 24.1921 9.67643L24.0397 9.54885C22.6561 8.39755 21.2664 7.29603 19.9681 6.36876C18.7574 5.50974 17.5205 4.68994 16.2591 3.91057" fill="#E8222C"/>
<path d="M20.2591 9.91368L20.058 9.78922C17.7784 8.37342 15.773 7.12566 14.0542 6.49711C13.1066 6.12529 12.0937 5.95891 11.0797 6.00858C10.0124 6.09177 8.99217 6.49197 8.14486 7.15988C6.38029 8.51033 5.61838 10.4987 5.20086 12.6986C4.79552 14.8301 4.6401 17.6056 4.4481 20.9849L4.43895 21.1591C4.32314 23.1817 4.25 25.1825 4.25 26.9966C4.25 28.8106 4.32314 30.8145 4.43895 32.8371L4.4481 33.0082C4.6401 36.3875 4.79552 39.1631 5.20086 41.2914C5.61838 43.4945 6.38029 45.4797 8.14486 46.8332C9.01648 47.5022 9.99476 47.9005 11.0797 47.9845C12.122 48.0623 13.1216 47.8383 14.0542 47.496C15.773 46.8675 17.7784 45.6197 20.058 44.207L20.2591 44.0826C21.5574 43.2735 22.8313 42.4427 23.9681 41.6244C25.3602 40.6132 26.7173 39.5525 28.0367 38.4443L28.189 38.3167C30.5174 36.3781 32.4923 34.7321 33.8576 33.114C35.3449 31.3404 36.25 29.4361 36.25 26.9966C36.25 24.557 35.3449 22.6496 33.8546 20.8791C32.4923 19.261 30.5174 17.6119 28.1921 15.6764L28.0397 15.5489C26.6561 14.3975 25.2664 13.296 23.9681 12.3688C22.7574 11.5097 21.5205 10.6899 20.2591 9.91057" fill="#2C2C2C"/>
</svg>
