<svg width="422" height="72" viewBox="0 0 422 72" fill="none" xmlns="http://www.w3.org/2000/svg">
<path d="M2.87642 49V22.8182H12.4645C14.3224 22.8182 15.8608 23.125 17.0795 23.7386C18.2983 24.3437 19.2102 25.1662 19.8153 26.206C20.4205 27.2372 20.723 28.4006 20.723 29.696C20.723 30.7869 20.5227 31.7074 20.1222 32.4574C19.7216 33.1989 19.1847 33.7955 18.5114 34.2472C17.8466 34.6903 17.1136 35.0142 16.3125 35.2188V35.4744C17.1818 35.517 18.0298 35.7983 18.8565 36.3182C19.6918 36.8295 20.3821 37.5582 20.9276 38.5043C21.473 39.4503 21.7457 40.6009 21.7457 41.956C21.7457 43.294 21.4304 44.4957 20.7997 45.5611C20.1776 46.6179 19.2145 47.4574 17.9105 48.0795C16.6065 48.6932 14.9403 49 12.9119 49H2.87642ZM6.8267 45.6122H12.5284C14.4205 45.6122 15.7756 45.2457 16.5938 44.5128C17.4119 43.7798 17.821 42.8636 17.821 41.7642C17.821 40.9375 17.6122 40.179 17.1946 39.4886C16.777 38.7983 16.1804 38.2486 15.4048 37.8395C14.6378 37.4304 13.7259 37.2259 12.669 37.2259H6.8267V45.6122ZM6.8267 34.1449H12.1193C13.0057 34.1449 13.8026 33.9744 14.5099 33.6335C15.2259 33.2926 15.7926 32.8153 16.2102 32.2017C16.6364 31.5795 16.8494 30.8466 16.8494 30.0028C16.8494 28.9205 16.4702 28.0128 15.7116 27.2798C14.9531 26.5469 13.7898 26.1804 12.2216 26.1804H6.8267V34.1449ZM26.1243 49V29.3636H29.9467V49H26.1243ZM28.0547 26.3338C27.3899 26.3338 26.8189 26.1122 26.3416 25.669C25.8729 25.2173 25.6385 24.6804 25.6385 24.0582C25.6385 23.4276 25.8729 22.8906 26.3416 22.4474C26.8189 21.9957 27.3899 21.7699 28.0547 21.7699C28.7195 21.7699 29.2862 21.9957 29.755 22.4474C30.2322 22.8906 30.4709 23.4276 30.4709 24.0582C30.4709 24.6804 30.2322 25.2173 29.755 25.669C29.2862 26.1122 28.7195 26.3338 28.0547 26.3338ZM38.9116 37.3409V49H35.0891V29.3636H38.7582V32.5597H39.0011C39.4528 31.5199 40.1602 30.6847 41.1232 30.054C42.0948 29.4233 43.3178 29.108 44.7923 29.108C46.1303 29.108 47.3022 29.3892 48.3079 29.9517C49.3136 30.5057 50.0934 31.3324 50.6474 32.4318C51.2014 33.5312 51.4783 34.8906 51.4783 36.5099V49H47.6559V36.9702C47.6559 35.5469 47.2852 34.4347 46.5437 33.6335C45.8022 32.8239 44.7837 32.419 43.4883 32.419C42.6019 32.419 41.8136 32.6108 41.1232 32.9943C40.4414 33.3778 39.9002 33.9403 39.4996 34.6818C39.1076 35.4148 38.9116 36.3011 38.9116 37.3409ZM64.8377 56.7727C63.2781 56.7727 61.9357 56.5682 60.8107 56.1591C59.6942 55.75 58.7823 55.2088 58.0749 54.5355C57.3675 53.8622 56.8391 53.125 56.4897 52.3239L59.7752 50.9688C60.0053 51.3438 60.3121 51.7401 60.6957 52.1577C61.0877 52.5838 61.6161 52.946 62.2809 53.2443C62.9542 53.5426 63.8192 53.6918 64.8761 53.6918C66.3249 53.6918 67.5224 53.3381 68.4684 52.6307C69.4144 51.9318 69.8874 50.8153 69.8874 49.2812V45.4205H69.6445C69.4144 45.8381 69.082 46.3026 68.6474 46.8139C68.2212 47.3253 67.6332 47.7685 66.8832 48.1435C66.1332 48.5185 65.1573 48.706 63.9556 48.706C62.4045 48.706 61.0067 48.3437 59.7624 47.6193C58.5266 46.8864 57.5465 45.8082 56.8221 44.3849C56.1062 42.9531 55.7482 41.1932 55.7482 39.1051C55.7482 37.017 56.1019 35.2273 56.8093 33.7358C57.5252 32.2443 58.5053 31.1023 59.7496 30.3097C60.994 29.5085 62.4045 29.108 63.9812 29.108C65.1999 29.108 66.1843 29.3125 66.9343 29.7216C67.6843 30.1222 68.2681 30.5909 68.6857 31.1278C69.1119 31.6648 69.44 32.1378 69.6701 32.5469H69.9514V29.3636H73.6971V49.4347C73.6971 51.1222 73.305 52.5071 72.521 53.5895C71.7369 54.6719 70.6758 55.473 69.3377 55.9929C68.0082 56.5128 66.5082 56.7727 64.8377 56.7727ZM64.7994 45.5355C65.8988 45.5355 66.8278 45.2798 67.5863 44.7685C68.3533 44.2486 68.9329 43.5071 69.3249 42.544C69.7255 41.5724 69.9258 40.4091 69.9258 39.054C69.9258 37.733 69.7298 36.5696 69.3377 35.5639C68.9457 34.5582 68.3704 33.7741 67.6119 33.2116C66.8533 32.6406 65.9158 32.3551 64.7994 32.3551C63.6488 32.3551 62.69 32.6534 61.9229 33.25C61.1559 33.8381 60.5763 34.6392 60.1843 35.6534C59.8008 36.6676 59.609 37.8011 59.609 39.054C59.609 40.3409 59.805 41.4702 60.1971 42.4418C60.5891 43.4134 61.1687 44.1719 61.9357 44.7173C62.7113 45.2628 63.6658 45.5355 64.7994 45.5355ZM87.2866 49.3963C85.3519 49.3963 83.6857 48.983 82.288 48.1562C80.8988 47.321 79.8249 46.1491 79.0664 44.6406C78.3164 43.1236 77.9414 41.3466 77.9414 39.3097C77.9414 37.2983 78.3164 35.5256 79.0664 33.9915C79.8249 32.4574 80.8817 31.2599 82.2369 30.3991C83.6005 29.5384 85.1942 29.108 87.0181 29.108C88.1261 29.108 89.1999 29.2912 90.2397 29.6577C91.2795 30.0241 92.2127 30.5994 93.0394 31.3835C93.8661 32.1676 94.5181 33.1861 94.9954 34.4389C95.4727 35.6832 95.7113 37.196 95.7113 38.9773V40.3324H80.1019V37.4688H91.9656C91.9656 36.4631 91.761 35.5724 91.3519 34.7969C90.9428 34.0128 90.3675 33.3949 89.6261 32.9432C88.8931 32.4915 88.0323 32.2656 87.0437 32.2656C85.9698 32.2656 85.0323 32.5298 84.2312 33.0582C83.4386 33.5781 82.8249 34.2599 82.3903 35.1037C81.9641 35.9389 81.7511 36.8466 81.7511 37.8267V40.0639C81.7511 41.3764 81.9812 42.4929 82.4414 43.4134C82.9102 44.3338 83.5621 45.0369 84.3974 45.5227C85.2326 46 86.2085 46.2386 87.3249 46.2386C88.0494 46.2386 88.7099 46.1364 89.3065 45.9318C89.9031 45.7187 90.4187 45.4034 90.8533 44.9858C91.288 44.5682 91.6204 44.0526 91.8505 43.4389L95.4684 44.0909C95.1786 45.1562 94.6587 46.0895 93.9087 46.8906C93.1673 47.6832 92.234 48.3011 91.109 48.7443C89.9925 49.179 88.7184 49.3963 87.2866 49.3963ZM100.259 49V22.8182H109.847C111.705 22.8182 113.244 23.125 114.462 23.7386C115.681 24.3437 116.593 25.1662 117.198 26.206C117.803 27.2372 118.106 28.4006 118.106 29.696C118.106 30.7869 117.906 31.7074 117.505 32.4574C117.104 33.1989 116.567 33.7955 115.894 34.2472C115.229 34.6903 114.496 35.0142 113.695 35.2188V35.4744C114.565 35.517 115.413 35.7983 116.239 36.3182C117.075 36.8295 117.765 37.5582 118.31 38.5043C118.856 39.4503 119.129 40.6009 119.129 41.956C119.129 43.294 118.813 44.4957 118.183 45.5611C117.56 46.6179 116.597 47.4574 115.293 48.0795C113.989 48.6932 112.323 49 110.295 49H100.259ZM104.21 45.6122H109.911C111.803 45.6122 113.158 45.2457 113.977 44.5128C114.795 43.7798 115.204 42.8636 115.204 41.7642C115.204 40.9375 114.995 40.179 114.577 39.4886C114.16 38.7983 113.563 38.2486 112.788 37.8395C112.021 37.4304 111.109 37.2259 110.052 37.2259H104.21V45.6122ZM104.21 34.1449H109.502C110.388 34.1449 111.185 33.9744 111.893 33.6335C112.609 33.2926 113.175 32.8153 113.593 32.2017C114.019 31.5795 114.232 30.8466 114.232 30.0028C114.232 28.9205 113.853 28.0128 113.094 27.2798C112.336 26.5469 111.173 26.1804 109.604 26.1804H104.21V34.1449ZM135.946 40.8565V29.3636H139.781V49H136.023V45.5994H135.818C135.366 46.6477 134.642 47.5213 133.645 48.2202C132.656 48.9105 131.425 49.2557 129.95 49.2557C128.689 49.2557 127.572 48.9787 126.601 48.4247C125.638 47.8622 124.879 47.0312 124.325 45.9318C123.78 44.8324 123.507 43.473 123.507 41.8537V29.3636H127.33V41.3935C127.33 42.7315 127.7 43.7969 128.442 44.5895C129.183 45.3821 130.146 45.7784 131.331 45.7784C132.047 45.7784 132.759 45.5994 133.466 45.2415C134.182 44.8835 134.774 44.3423 135.243 43.6179C135.72 42.8935 135.955 41.973 135.946 40.8565ZM152.268 49.3835C150.683 49.3835 149.268 48.9787 148.024 48.169C146.788 47.3509 145.816 46.1875 145.109 44.679C144.41 43.1619 144.061 41.3423 144.061 39.2202C144.061 37.098 144.414 35.2827 145.122 33.7741C145.838 32.2656 146.818 31.1108 148.062 30.3097C149.306 29.5085 150.717 29.108 152.294 29.108C153.512 29.108 154.493 29.3125 155.234 29.7216C155.984 30.1222 156.564 30.5909 156.973 31.1278C157.39 31.6648 157.714 32.1378 157.944 32.5469H158.174V22.8182H161.997V49H158.264V45.9446H157.944C157.714 46.3622 157.382 46.8395 156.947 47.3764C156.521 47.9134 155.933 48.3821 155.183 48.7827C154.433 49.1832 153.461 49.3835 152.268 49.3835ZM153.112 46.1236C154.211 46.1236 155.14 45.8338 155.899 45.2543C156.666 44.6662 157.245 43.8523 157.637 42.8125C158.038 41.7727 158.238 40.5625 158.238 39.1818C158.238 37.8182 158.042 36.625 157.65 35.6023C157.258 34.5795 156.683 33.7827 155.924 33.2116C155.166 32.6406 154.228 32.3551 153.112 32.3551C151.961 32.3551 151.002 32.6534 150.235 33.25C149.468 33.8466 148.889 34.6605 148.497 35.6918C148.113 36.723 147.922 37.8864 147.922 39.1818C147.922 40.4943 148.118 41.6747 148.51 42.723C148.902 43.7713 149.481 44.6023 150.248 45.2159C151.024 45.821 151.978 46.1236 153.112 46.1236ZM174.803 49.3835C173.218 49.3835 171.803 48.9787 170.559 48.169C169.323 47.3509 168.352 46.1875 167.644 44.679C166.945 43.1619 166.596 41.3423 166.596 39.2202C166.596 37.098 166.95 35.2827 167.657 33.7741C168.373 32.2656 169.353 31.1108 170.597 30.3097C171.842 29.5085 173.252 29.108 174.829 29.108C176.048 29.108 177.028 29.3125 177.769 29.7216C178.519 30.1222 179.099 30.5909 179.508 31.1278C179.925 31.6648 180.249 32.1378 180.479 32.5469H180.71V22.8182H184.532V49H180.799V45.9446H180.479C180.249 46.3622 179.917 46.8395 179.482 47.3764C179.056 47.9134 178.468 48.3821 177.718 48.7827C176.968 49.1832 175.996 49.3835 174.803 49.3835ZM175.647 46.1236C176.746 46.1236 177.675 45.8338 178.434 45.2543C179.201 44.6662 179.781 43.8523 180.173 42.8125C180.573 41.7727 180.773 40.5625 180.773 39.1818C180.773 37.8182 180.577 36.625 180.185 35.6023C179.793 34.5795 179.218 33.7827 178.46 33.2116C177.701 32.6406 176.763 32.3551 175.647 32.3551C174.496 32.3551 173.538 32.6534 172.771 33.25C172.004 33.8466 171.424 34.6605 171.032 35.6918C170.648 36.723 170.457 37.8864 170.457 39.1818C170.457 40.4943 170.653 41.6747 171.045 42.723C171.437 43.7713 172.016 44.6023 172.783 45.2159C173.559 45.821 174.513 46.1236 175.647 46.1236ZM192.404 56.3636C191.833 56.3636 191.313 56.3168 190.844 56.223C190.375 56.1378 190.026 56.044 189.796 55.9418L190.716 52.8097C191.415 52.9972 192.037 53.0781 192.583 53.0526C193.128 53.027 193.61 52.8224 194.027 52.4389C194.453 52.0554 194.828 51.429 195.152 50.5597L195.625 49.2557L188.441 29.3636H192.532L197.505 44.6023H197.709L202.682 29.3636H206.786L198.694 51.6207C198.319 52.6435 197.841 53.5085 197.262 54.2159C196.682 54.9318 195.992 55.4688 195.191 55.8267C194.39 56.1847 193.461 56.3636 192.404 56.3636Z" fill="white"/>
<path d="M244.014 5.87052L243.712 5.68382C240.293 3.56013 237.285 1.68849 234.706 0.74566C233.285 0.187928 231.766 -0.0616287 230.245 0.0128691C228.644 0.137649 227.113 0.737961 225.842 1.73983C223.195 3.7655 222.053 6.748 221.426 10.0479C220.818 13.2451 220.585 17.4085 220.297 22.4773L220.283 22.7387C220.11 25.7725 220 28.7737 220 31.4948C220 34.216 220.11 37.2218 220.283 40.2556L220.297 40.5124C220.585 45.5812 220.818 49.7446 221.426 52.9371C222.053 56.2417 223.195 59.2195 225.842 61.2499C227.15 62.2534 228.617 62.8508 230.245 62.9768C231.808 63.0935 233.307 62.7574 234.706 62.244C237.285 61.3012 240.293 59.4296 243.712 57.3105L244.014 57.1238C245.961 55.9103 247.872 54.6641 249.577 53.4365C251.665 51.9198 253.701 50.3287 255.68 48.6664L255.909 48.475C259.401 45.5672 262.363 43.0981 264.411 40.6711C266.642 38.0106 268 35.1541 268 31.4948C268 27.8356 266.642 24.9744 264.407 22.3186C262.363 19.8916 259.401 17.4178 255.913 14.5146L255.685 14.3233C253.609 12.5963 251.525 10.944 249.577 9.55314C247.761 8.26462 245.906 7.03491 244.014 5.86585" fill="#E8222C"/>
<path d="M250.014 14.8705L249.712 14.6838C246.293 12.5601 243.285 10.6885 240.706 9.74566C239.285 9.18793 237.766 8.93837 236.245 9.01287C234.644 9.13765 233.113 9.73796 231.842 10.7398C229.195 12.7655 228.053 15.748 227.426 19.0479C226.818 22.2451 226.585 26.4085 226.297 31.4773L226.283 31.7387C226.11 34.7725 226 37.7737 226 40.4948C226 43.216 226.11 46.2218 226.283 49.2556L226.297 49.5124C226.585 54.5812 226.818 58.7446 227.426 61.9371C228.053 65.2417 229.195 68.2195 231.842 70.2499C233.15 71.2534 234.617 71.8508 236.245 71.9768C237.808 72.0935 239.307 71.7574 240.706 71.244C243.285 70.3012 246.293 68.4296 249.712 66.3105L250.014 66.1238C251.961 64.9103 253.872 63.6641 255.577 62.4365C257.665 60.9198 259.701 59.3287 261.68 57.6664L261.909 57.475C265.401 54.5672 268.363 52.0981 270.411 49.6711C272.642 47.0106 274 44.1541 274 40.4948C274 36.8356 272.642 33.9744 270.407 31.3186C268.363 28.8916 265.401 26.4178 261.913 23.5146L261.685 23.3233C259.609 21.5963 257.525 19.944 255.577 18.5531C253.761 17.2646 251.906 16.0349 250.014 14.8659" fill="#2C2C2C"/>
</svg>
