<svg width="28" height="36" viewBox="0 0 28 36" fill="none" xmlns="http://www.w3.org/2000/svg">
<path d="M12.7569 2.87487L12.606 2.78344C10.8963 1.74344 9.39229 0.826874 8.10314 0.365159C7.39248 0.0920309 6.63275 -0.0301804 5.87229 0.00630217C5.07177 0.0674086 4.30663 0.361389 3.67114 0.852016C2.34771 1.84402 1.77629 3.30459 1.46314 4.92059C1.15914 6.4863 1.04257 8.52516 0.898572 11.0074L0.891714 11.1354C0.804857 12.6212 0.75 14.0909 0.75 15.4234C0.75 16.756 0.804857 18.228 0.891714 19.7137L0.898572 19.8394C1.04257 22.3217 1.15914 24.3606 1.46314 25.924C1.77629 27.5423 2.34771 29.0006 3.67114 29.9949C4.32486 30.4863 5.05857 30.7789 5.87229 30.8406C6.654 30.8977 7.40371 30.7332 8.10314 30.4817C9.39229 30.02 10.8963 29.1034 12.606 28.0657L12.7569 27.9743C13.7306 27.38 14.686 26.7697 15.5386 26.1686C16.5827 25.4258 17.6005 24.6467 18.59 23.8326L18.7043 23.7389C20.4506 22.3149 21.9317 21.1057 22.9557 19.9172C24.0711 18.6143 24.75 17.2154 24.75 15.4234C24.75 13.6314 24.0711 12.2303 22.9534 10.9297C21.9317 9.74116 20.4506 8.52973 18.7066 7.10802L18.5923 7.0143C17.5546 6.16859 16.5123 5.35944 15.5386 4.6783C14.6306 4.04729 13.7029 3.44509 12.7569 2.87259" fill="#E8222C"/>
<path d="M15.7569 7.37487L15.606 7.28344C13.8963 6.24344 12.3923 5.32687 11.1031 4.86516C10.3925 4.59203 9.63275 4.46982 8.87229 4.5063C8.07177 4.56741 7.30663 4.86139 6.67114 5.35202C5.34771 6.34402 4.77629 7.80459 4.46314 9.42059C4.15914 10.9863 4.04257 13.0252 3.89857 15.5074L3.89171 15.6354C3.80486 17.1212 3.75 18.5909 3.75 19.9234C3.75 21.256 3.80486 22.728 3.89171 24.2137L3.89857 24.3394C4.04257 26.8217 4.15914 28.8606 4.46314 30.424C4.77629 32.0423 5.34771 33.5006 6.67114 34.4949C7.32486 34.9863 8.05857 35.2789 8.87229 35.3406C9.654 35.3977 10.4037 35.2332 11.1031 34.9817C12.3923 34.52 13.8963 33.6034 15.606 32.5657L15.7569 32.4743C16.7306 31.88 17.686 31.2697 18.5386 30.6686C19.5827 29.9258 20.6005 29.1467 21.59 28.3326L21.7043 28.2389C23.4506 26.8149 24.9317 25.6057 25.9557 24.4172C27.0711 23.1143 27.75 21.7154 27.75 19.9234C27.75 18.1314 27.0711 16.7303 25.9534 15.4297C24.9317 14.2412 23.4506 13.0297 21.7066 11.608L21.5923 11.5143C20.5546 10.6686 19.5123 9.85944 18.5386 9.1783C17.6306 8.54729 16.7029 7.94509 15.7569 7.37259" fill="#2C2C2C"/>
</svg>
