<svg width="206" height="48" viewBox="0 0 206 48" fill="none" xmlns="http://www.w3.org/2000/svg">
<path d="M2.23722 34V13.6364H9.6946C11.1397 13.6364 12.3362 13.875 13.2841 14.3523C14.232 14.8229 14.9413 15.4626 15.4119 16.2713C15.8826 17.0734 16.1179 17.9782 16.1179 18.9858C16.1179 19.8343 15.9621 20.5502 15.6506 21.1335C15.339 21.7102 14.9214 22.1742 14.3977 22.5256C13.8807 22.8703 13.3106 23.1222 12.6875 23.2812V23.4801C13.3636 23.5133 14.0232 23.732 14.6662 24.1364C15.3158 24.5341 15.8527 25.1009 16.277 25.8366C16.7012 26.5724 16.9134 27.4673 16.9134 28.5213C16.9134 29.562 16.6681 30.4967 16.1776 31.3253C15.6937 32.1473 14.9446 32.8002 13.9304 33.2841C12.9162 33.7614 11.6203 34 10.0426 34H2.23722ZM5.30966 31.3651H9.74432C11.2159 31.3651 12.2699 31.08 12.9062 30.5099C13.5426 29.9399 13.8608 29.2273 13.8608 28.3722C13.8608 27.7292 13.6984 27.1392 13.3736 26.6023C13.0488 26.0653 12.5848 25.6378 11.9815 25.3196C11.3849 25.0014 10.6757 24.8423 9.85369 24.8423H5.30966V31.3651ZM5.30966 22.446H9.42614C10.1155 22.446 10.7353 22.3134 11.2855 22.0483C11.8423 21.7831 12.2831 21.4119 12.608 20.9347C12.9394 20.4508 13.1051 19.8807 13.1051 19.2244C13.1051 18.3826 12.8101 17.6766 12.2202 17.1065C11.6302 16.5365 10.7254 16.2514 9.50568 16.2514H5.30966V22.446ZM20.3189 34V18.7273H23.2919V34H20.3189ZM21.8203 16.3707C21.3033 16.3707 20.8591 16.1984 20.4879 15.8537C20.1233 15.5024 19.9411 15.0848 19.9411 14.6009C19.9411 14.1103 20.1233 13.6927 20.4879 13.348C20.8591 12.9967 21.3033 12.821 21.8203 12.821C22.3374 12.821 22.7782 12.9967 23.1428 13.348C23.514 13.6927 23.6996 14.1103 23.6996 14.6009C23.6996 15.0848 23.514 15.5024 23.1428 15.8537C22.7782 16.1984 22.3374 16.3707 21.8203 16.3707ZM30.2646 24.9318V34H27.2915V18.7273H30.1452V21.2131H30.3342C30.6855 20.4044 31.2357 19.7547 31.9847 19.2642C32.7404 18.7737 33.6916 18.5284 34.8384 18.5284C35.8791 18.5284 36.7906 18.7472 37.5728 19.1847C38.355 19.6155 38.9615 20.2585 39.3924 21.1136C39.8233 21.9687 40.0387 23.026 40.0387 24.2855V34H37.0657V24.6435C37.0657 23.5365 36.7773 22.6714 36.2006 22.0483C35.6239 21.4186 34.8318 21.1037 33.8242 21.1037C33.1348 21.1037 32.5217 21.2528 31.9847 21.5511C31.4544 21.8494 31.0335 22.2869 30.7219 22.8636C30.417 23.4337 30.2646 24.1231 30.2646 24.9318ZM50.4293 40.0455C49.2163 40.0455 48.1722 39.8864 47.2972 39.5682C46.4289 39.25 45.7196 38.8291 45.1694 38.3054C44.6192 37.7817 44.2082 37.2083 43.9364 36.5852L46.4918 35.5312C46.6708 35.8229 46.9094 36.1312 47.2077 36.456C47.5127 36.7874 47.9237 37.0691 48.4407 37.3011C48.9644 37.5331 49.6372 37.6491 50.4592 37.6491C51.5861 37.6491 52.5174 37.3741 53.2532 36.8239C53.989 36.2803 54.3569 35.4119 54.3569 34.2188V31.2159H54.168C53.989 31.5407 53.7305 31.902 53.3924 32.2997C53.061 32.6974 52.6036 33.0421 52.0202 33.3338C51.4369 33.6255 50.6779 33.7713 49.7433 33.7713C48.5368 33.7713 47.4497 33.4896 46.4819 32.9261C45.5207 32.3561 44.7584 31.5175 44.195 30.4105C43.6381 29.2969 43.3597 27.928 43.3597 26.304C43.3597 24.6799 43.6348 23.2879 44.185 22.1278C44.7418 20.9678 45.5041 20.0795 46.4719 19.4631C47.4397 18.84 48.5368 18.5284 49.7631 18.5284C50.7111 18.5284 51.4767 18.6875 52.06 19.0057C52.6433 19.3172 53.0974 19.6818 53.4222 20.0994C53.7537 20.517 54.0089 20.8849 54.1879 21.2031H54.4066V18.7273H57.32V34.3381C57.32 35.6506 57.015 36.7277 56.4052 37.5696C55.7953 38.4115 54.9701 39.0346 53.9293 39.4389C52.8952 39.8433 51.7286 40.0455 50.4293 40.0455ZM50.3995 31.3054C51.2546 31.3054 51.9772 31.1065 52.5671 30.7088C53.1637 30.3045 53.6145 29.7277 53.9194 28.9787C54.2309 28.223 54.3867 27.3182 54.3867 26.2642C54.3867 25.2367 54.2343 24.3319 53.9293 23.5497C53.6244 22.7675 53.177 22.1577 52.587 21.7202C51.997 21.276 51.2679 21.054 50.3995 21.054C49.5046 21.054 48.7589 21.286 48.1623 21.75C47.5657 22.2074 47.1149 22.8305 46.81 23.6193C46.5117 24.4081 46.3626 25.2898 46.3626 26.2642C46.3626 27.2652 46.515 28.1435 46.82 28.8991C47.1249 29.6548 47.5756 30.2448 48.1722 30.669C48.7754 31.0933 49.5179 31.3054 50.3995 31.3054ZM67.8896 34.3082C66.3848 34.3082 65.0889 33.9867 64.0018 33.3438C62.9213 32.6941 62.0861 31.7827 61.4961 30.6094C60.9128 29.4295 60.6211 28.0473 60.6211 26.4631C60.6211 24.8987 60.9128 23.5199 61.4961 22.3267C62.0861 21.1335 62.908 20.2022 63.962 19.5327C65.0226 18.8632 66.2622 18.5284 67.6808 18.5284C68.5425 18.5284 69.3777 18.6709 70.1864 18.956C70.9951 19.241 71.721 19.6884 72.364 20.2983C73.007 20.9081 73.5141 21.7003 73.8853 22.6747C74.2565 23.6425 74.4421 24.8191 74.4421 26.2045V27.2585H62.3015V25.0312H71.5288C71.5288 24.2491 71.3697 23.5563 71.0515 22.9531C70.7333 22.3433 70.2859 21.8627 69.7092 21.5114C69.1391 21.16 68.4696 20.9844 67.7006 20.9844C66.8654 20.9844 66.1362 21.1899 65.5131 21.6009C64.8967 22.0052 64.4194 22.5355 64.0813 23.1918C63.7499 23.8414 63.5842 24.5473 63.5842 25.3097V27.0497C63.5842 28.0705 63.7631 28.9389 64.1211 29.6548C64.4857 30.3707 64.9928 30.9176 65.6424 31.2955C66.292 31.6667 67.051 31.8523 67.9194 31.8523C68.4828 31.8523 68.9966 31.7727 69.4606 31.6136C69.9246 31.4479 70.3256 31.2027 70.6637 30.8778C71.0018 30.553 71.2603 30.152 71.4393 29.6747L74.2532 30.1818C74.0278 31.0104 73.6235 31.7363 73.0401 32.3594C72.4634 32.9759 71.7376 33.4564 70.8626 33.8011C69.9942 34.1392 69.0032 34.3082 67.8896 34.3082ZM77.9794 34V13.6364H85.4368C86.8819 13.6364 88.0784 13.875 89.0263 14.3523C89.9742 14.8229 90.6835 15.4626 91.1541 16.2713C91.6248 17.0734 91.8601 17.9782 91.8601 18.9858C91.8601 19.8343 91.7043 20.5502 91.3928 21.1335C91.0812 21.7102 90.6636 22.1742 90.1399 22.5256C89.6229 22.8703 89.0528 23.1222 88.4297 23.2812V23.4801C89.1058 23.5133 89.7654 23.732 90.4084 24.1364C91.058 24.5341 91.5949 25.1009 92.0192 25.8366C92.4434 26.5724 92.6555 27.4673 92.6555 28.5213C92.6555 29.562 92.4103 30.4967 91.9197 31.3253C91.4358 32.1473 90.6868 32.8002 89.6726 33.2841C88.6584 33.7614 87.3625 34 85.7848 34H77.9794ZM81.0518 31.3651H85.4865C86.9581 31.3651 88.0121 31.08 88.6484 30.5099C89.2848 29.9399 89.603 29.2273 89.603 28.3722C89.603 27.7292 89.4406 27.1392 89.1158 26.6023C88.791 26.0653 88.3269 25.6378 87.7237 25.3196C87.1271 25.0014 86.4179 24.8423 85.5959 24.8423H81.0518V31.3651ZM81.0518 22.446H85.1683C85.8577 22.446 86.4775 22.3134 87.0277 22.0483C87.5845 21.7831 88.0253 21.4119 88.3501 20.9347C88.6816 20.4508 88.8473 19.8807 88.8473 19.2244C88.8473 18.3826 88.5523 17.6766 87.9624 17.1065C87.3724 16.5365 86.4676 16.2514 85.2479 16.2514H81.0518V22.446ZM105.736 27.6662V18.7273H108.719V34H105.795V31.3551H105.636C105.285 32.1705 104.722 32.8499 103.946 33.3935C103.177 33.9304 102.219 34.1989 101.072 34.1989C100.091 34.1989 99.223 33.9834 98.4673 33.5526C97.7183 33.1151 97.1283 32.4688 96.6974 31.6136C96.2732 30.7585 96.0611 29.7012 96.0611 28.4418V18.7273H99.0341V28.0838C99.0341 29.1245 99.3224 29.9531 99.8991 30.5696C100.476 31.1861 101.225 31.4943 102.146 31.4943C102.703 31.4943 103.257 31.3551 103.807 31.0767C104.364 30.7983 104.824 30.3774 105.189 29.8139C105.56 29.2505 105.742 28.5346 105.736 27.6662ZM118.431 34.2983C117.198 34.2983 116.097 33.9834 115.13 33.3537C114.168 32.7173 113.413 31.8125 112.863 30.6392C112.319 29.4593 112.047 28.044 112.047 26.3935C112.047 24.7429 112.322 23.331 112.873 22.1577C113.429 20.9844 114.192 20.0862 115.159 19.4631C116.127 18.84 117.224 18.5284 118.451 18.5284C119.399 18.5284 120.161 18.6875 120.738 19.0057C121.321 19.3172 121.772 19.6818 122.09 20.0994C122.415 20.517 122.667 20.8849 122.846 21.2031H123.025V13.6364H125.998V34H123.094V31.6236H122.846C122.667 31.9484 122.408 32.3196 122.07 32.7372C121.739 33.1548 121.281 33.5194 120.698 33.831C120.114 34.1425 119.359 34.2983 118.431 34.2983ZM119.087 31.7628C119.942 31.7628 120.665 31.5374 121.255 31.0866C121.851 30.6293 122.302 29.9962 122.607 29.1875C122.918 28.3788 123.074 27.4375 123.074 26.3636C123.074 25.303 122.922 24.375 122.617 23.5795C122.312 22.7841 121.864 22.1643 121.275 21.7202C120.685 21.276 119.955 21.054 119.087 21.054C118.192 21.054 117.446 21.286 116.85 21.75C116.253 22.214 115.802 22.8471 115.498 23.6491C115.199 24.4512 115.05 25.3561 115.05 26.3636C115.05 27.3845 115.203 28.3026 115.507 29.1179C115.812 29.9332 116.263 30.5795 116.86 31.0568C117.463 31.5275 118.205 31.7628 119.087 31.7628ZM135.958 34.2983C134.725 34.2983 133.625 33.9834 132.657 33.3537C131.696 32.7173 130.94 31.8125 130.39 30.6392C129.846 29.4593 129.575 28.044 129.575 26.3935C129.575 24.7429 129.85 23.331 130.4 22.1577C130.957 20.9844 131.719 20.0862 132.687 19.4631C133.655 18.84 134.752 18.5284 135.978 18.5284C136.926 18.5284 137.688 18.6875 138.265 19.0057C138.848 19.3172 139.299 19.6818 139.617 20.0994C139.942 20.517 140.194 20.8849 140.373 21.2031H140.552V13.6364H143.525V34H140.621V31.6236H140.373C140.194 31.9484 139.935 32.3196 139.597 32.7372C139.266 33.1548 138.808 33.5194 138.225 33.831C137.642 34.1425 136.886 34.2983 135.958 34.2983ZM136.614 31.7628C137.469 31.7628 138.192 31.5374 138.782 31.0866C139.379 30.6293 139.829 29.9962 140.134 29.1875C140.446 28.3788 140.602 27.4375 140.602 26.3636C140.602 25.303 140.449 24.375 140.144 23.5795C139.839 22.7841 139.392 22.1643 138.802 21.7202C138.212 21.276 137.483 21.054 136.614 21.054C135.719 21.054 134.974 21.286 134.377 21.75C133.781 22.214 133.33 22.8471 133.025 23.6491C132.727 24.4512 132.577 25.3561 132.577 26.3636C132.577 27.3845 132.73 28.3026 133.035 29.1179C133.34 29.9332 133.79 30.5795 134.387 31.0568C134.99 31.5275 135.733 31.7628 136.614 31.7628ZM149.647 39.7273C149.203 39.7273 148.799 39.6908 148.434 39.6179C148.07 39.5516 147.798 39.4787 147.619 39.3991L148.335 36.9631C148.878 37.1089 149.362 37.1719 149.787 37.152C150.211 37.1321 150.585 36.973 150.91 36.6747C151.242 36.3764 151.533 35.8892 151.785 35.2131L152.153 34.1989L146.565 18.7273H149.747L153.615 30.5795H153.774L157.642 18.7273H160.833L154.539 36.0384C154.248 36.8338 153.877 37.5066 153.426 38.0568C152.975 38.6136 152.438 39.0313 151.815 39.3097C151.192 39.5881 150.469 39.7273 149.647 39.7273Z" fill="white"/>
<path d="M186.009 3.91368L185.808 3.78922C183.528 2.37342 181.523 1.12566 179.804 0.497106C178.857 0.125285 177.844 -0.0410858 176.83 0.0085794C175.762 0.091766 174.742 0.491974 173.895 1.15988C172.13 2.51033 171.368 4.49867 170.951 6.6986C170.546 8.83007 170.39 11.6056 170.198 14.9849L170.189 15.1591C170.073 17.1817 170 19.1825 170 20.9966C170 22.8106 170.073 24.8145 170.189 26.8371L170.198 27.0082C170.39 30.3875 170.546 33.1631 170.951 35.2914C171.368 37.4945 172.13 39.4797 173.895 40.8332C174.766 41.5022 175.745 41.9005 176.83 41.9845C177.872 42.0623 178.872 41.8383 179.804 41.496C181.523 40.8675 183.528 39.6197 185.808 38.207L186.009 38.0826C187.307 37.2735 188.581 36.4427 189.718 35.6244C191.11 34.6132 192.467 33.5525 193.787 32.4443L193.939 32.3167C196.267 30.3781 198.242 28.7321 199.608 27.114C201.095 25.3404 202 23.4361 202 20.9966C202 18.557 201.095 16.6496 199.605 14.8791C198.242 13.261 196.267 11.6119 193.942 9.67643L193.79 9.54885C192.406 8.39755 191.016 7.29603 189.718 6.36876C188.507 5.50974 187.27 4.68994 186.009 3.91057" fill="#E8222C"/>
<path d="M190.009 9.91368L189.808 9.78922C187.528 8.37342 185.523 7.12566 183.804 6.49711C182.857 6.12529 181.844 5.95891 180.83 6.00858C179.762 6.09177 178.742 6.49197 177.895 7.15988C176.13 8.51033 175.368 10.4987 174.951 12.6986C174.546 14.8301 174.39 17.6056 174.198 20.9849L174.189 21.1591C174.073 23.1817 174 25.1825 174 26.9966C174 28.8106 174.073 30.8145 174.189 32.8371L174.198 33.0082C174.39 36.3875 174.546 39.1631 174.951 41.2914C175.368 43.4945 176.13 45.4797 177.895 46.8332C178.766 47.5022 179.745 47.9005 180.83 47.9845C181.872 48.0623 182.872 47.8383 183.804 47.496C185.523 46.8675 187.528 45.6197 189.808 44.207L190.009 44.0826C191.307 43.2735 192.581 42.4427 193.718 41.6244C195.11 40.6132 196.467 39.5525 197.787 38.4443L197.939 38.3167C200.267 36.3781 202.242 34.7321 203.608 33.114C205.095 31.3404 206 29.4361 206 26.9966C206 24.557 205.095 22.6496 203.605 20.8791C202.242 19.261 200.267 17.6119 197.942 15.6764L197.79 15.5489C196.406 14.3975 195.016 13.296 193.718 12.3688C192.507 11.5097 191.27 10.6899 190.009 9.91057" fill="#2C2C2C"/>
</svg>
