<svg width="366" height="96" viewBox="0 0 366 96" fill="none" xmlns="http://www.w3.org/2000/svg">
<path d="M3.83523 65V30.0909H16.6193C19.0966 30.0909 21.1477 30.5 22.7727 31.3182C24.3977 32.125 25.6136 33.2216 26.4205 34.608C27.2273 35.983 27.6307 37.5341 27.6307 39.2614C27.6307 40.7159 27.3636 41.9432 26.8295 42.9432C26.2955 43.9318 25.5795 44.7273 24.6818 45.3295C23.7955 45.9205 22.8182 46.3523 21.75 46.625V46.9659C22.9091 47.0227 24.0398 47.3977 25.142 48.0909C26.2557 48.7727 27.1761 49.7443 27.9034 51.0057C28.6307 52.267 28.9943 53.8011 28.9943 55.608C28.9943 57.392 28.5739 58.9943 27.733 60.4148C26.9034 61.8239 25.6193 62.9432 23.8807 63.7727C22.142 64.5909 19.9205 65 17.2159 65H3.83523ZM9.10227 60.483H16.7045C19.2273 60.483 21.0341 59.9943 22.125 59.017C23.2159 58.0398 23.7614 56.8182 23.7614 55.3523C23.7614 54.25 23.483 53.2386 22.9261 52.3182C22.3693 51.3977 21.5739 50.6648 20.5398 50.1193C19.517 49.5739 18.3011 49.3011 16.892 49.3011H9.10227V60.483ZM9.10227 45.1932H16.1591C17.3409 45.1932 18.4034 44.9659 19.3466 44.5114C20.3011 44.0568 21.0568 43.4205 21.6136 42.6023C22.1818 41.7727 22.4659 40.7955 22.4659 39.6705C22.4659 38.2273 21.9602 37.017 20.9489 36.0398C19.9375 35.0625 18.3864 34.5739 16.2955 34.5739H9.10227V45.1932ZM34.8324 65V38.8182H39.929V65H34.8324ZM37.4062 34.7784C36.5199 34.7784 35.7585 34.483 35.1222 33.892C34.4972 33.2898 34.1847 32.5739 34.1847 31.7443C34.1847 30.9034 34.4972 30.1875 35.1222 29.5966C35.7585 28.9943 36.5199 28.6932 37.4062 28.6932C38.2926 28.6932 39.0483 28.9943 39.6733 29.5966C40.3097 30.1875 40.6278 30.9034 40.6278 31.7443C40.6278 32.5739 40.3097 33.2898 39.6733 33.892C39.0483 34.483 38.2926 34.7784 37.4062 34.7784ZM51.8821 49.4545V65H46.7855V38.8182H51.6776V43.0795H52.0014C52.6037 41.6932 53.5469 40.5795 54.831 39.7386C56.1264 38.8977 57.7571 38.4773 59.723 38.4773C61.5071 38.4773 63.0696 38.8523 64.4105 39.6023C65.7514 40.3409 66.7912 41.4432 67.5298 42.9091C68.2685 44.375 68.6378 46.1875 68.6378 48.3466V65H63.5412V48.9602C63.5412 47.0625 63.0469 45.5795 62.0582 44.5114C61.0696 43.4318 59.7116 42.892 57.9844 42.892C56.8026 42.892 55.7514 43.1477 54.831 43.6591C53.9219 44.1705 53.2003 44.9205 52.6662 45.9091C52.1435 46.8864 51.8821 48.0682 51.8821 49.4545ZM86.4503 75.3636C84.3707 75.3636 82.581 75.0909 81.081 74.5455C79.5923 74 78.3764 73.2784 77.4332 72.3807C76.4901 71.483 75.7855 70.5 75.3196 69.4318L79.7003 67.625C80.0071 68.125 80.4162 68.6534 80.9276 69.2102C81.4503 69.7784 82.1548 70.2614 83.0412 70.6591C83.9389 71.0568 85.0923 71.2557 86.5014 71.2557C88.4332 71.2557 90.0298 70.7841 91.2912 69.8409C92.5526 68.9091 93.1832 67.4205 93.1832 65.375V60.2273H92.8594C92.5526 60.7841 92.1094 61.4034 91.5298 62.0852C90.9616 62.767 90.1776 63.358 89.1776 63.858C88.1776 64.358 86.8764 64.608 85.2741 64.608C83.206 64.608 81.3423 64.125 79.6832 63.1591C78.0355 62.1818 76.7287 60.7443 75.7628 58.8466C74.8082 56.9375 74.331 54.5909 74.331 51.8068C74.331 49.0227 74.8026 46.6364 75.7457 44.6477C76.7003 42.6591 78.0071 41.1364 79.6662 40.0795C81.3253 39.0114 83.206 38.4773 85.3082 38.4773C86.9332 38.4773 88.2457 38.75 89.2457 39.2955C90.2457 39.8295 91.0241 40.4545 91.581 41.1705C92.1491 41.8864 92.5866 42.517 92.8935 43.0625H93.2685V38.8182H98.2628V65.5795C98.2628 67.8295 97.7401 69.6761 96.6946 71.1193C95.6491 72.5625 94.2344 73.6307 92.4503 74.3239C90.6776 75.017 88.6776 75.3636 86.4503 75.3636ZM86.3991 60.3807C87.8651 60.3807 89.1037 60.0398 90.1151 59.358C91.1378 58.6648 91.9105 57.6761 92.4332 56.392C92.9673 55.0966 93.2344 53.5455 93.2344 51.7386C93.2344 49.9773 92.973 48.4261 92.4503 47.0852C91.9276 45.7443 91.1605 44.6989 90.1491 43.9489C89.1378 43.1875 87.8878 42.8068 86.3991 42.8068C84.8651 42.8068 83.5866 43.2045 82.5639 44C81.5412 44.7841 80.7685 45.8523 80.2457 47.2045C79.7344 48.5568 79.4787 50.0682 79.4787 51.7386C79.4787 53.4545 79.7401 54.9602 80.2628 56.2557C80.7855 57.5511 81.5582 58.5625 82.581 59.2898C83.6151 60.017 84.8878 60.3807 86.3991 60.3807ZM116.382 65.5284C113.803 65.5284 111.581 64.9773 109.717 63.875C107.865 62.7614 106.433 61.1989 105.422 59.1875C104.422 57.1648 103.922 54.7955 103.922 52.0795C103.922 49.3977 104.422 47.0341 105.422 44.9886C106.433 42.9432 107.842 41.3466 109.649 40.1989C111.467 39.0511 113.592 38.4773 116.024 38.4773C117.501 38.4773 118.933 38.7216 120.32 39.2102C121.706 39.6989 122.95 40.4659 124.053 41.5114C125.155 42.5568 126.024 43.9148 126.661 45.5852C127.297 47.2443 127.615 49.2614 127.615 51.6364V53.4432H106.803V49.625H122.621C122.621 48.2841 122.348 47.0966 121.803 46.0625C121.257 45.017 120.49 44.1932 119.501 43.5909C118.524 42.9886 117.376 42.6875 116.058 42.6875C114.626 42.6875 113.376 43.0398 112.308 43.7443C111.251 44.4375 110.433 45.3466 109.854 46.4716C109.286 47.5852 109.001 48.7955 109.001 50.1023V53.0852C109.001 54.8352 109.308 56.3239 109.922 57.5511C110.547 58.7784 111.416 59.7159 112.53 60.3636C113.643 61 114.945 61.3182 116.433 61.3182C117.399 61.3182 118.28 61.1818 119.075 60.9091C119.871 60.625 120.558 60.2045 121.138 59.6477C121.717 59.0909 122.161 58.4034 122.467 57.5852L127.291 58.4545C126.905 59.875 126.212 61.1193 125.212 62.1875C124.223 63.2443 122.979 64.0682 121.479 64.6591C119.99 65.2386 118.291 65.5284 116.382 65.5284ZM133.679 65V30.0909H146.463C148.94 30.0909 150.991 30.5 152.616 31.3182C154.241 32.125 155.457 33.2216 156.264 34.608C157.071 35.983 157.474 37.5341 157.474 39.2614C157.474 40.7159 157.207 41.9432 156.673 42.9432C156.139 43.9318 155.423 44.7273 154.526 45.3295C153.639 45.9205 152.662 46.3523 151.594 46.625V46.9659C152.753 47.0227 153.884 47.3977 154.986 48.0909C156.099 48.7727 157.02 49.7443 157.747 51.0057C158.474 52.267 158.838 53.8011 158.838 55.608C158.838 57.392 158.418 58.9943 157.577 60.4148C156.747 61.8239 155.463 62.9432 153.724 63.7727C151.986 64.5909 149.764 65 147.06 65H133.679ZM138.946 60.483H146.548C149.071 60.483 150.878 59.9943 151.969 59.017C153.06 58.0398 153.605 56.8182 153.605 55.3523C153.605 54.25 153.327 53.2386 152.77 52.3182C152.213 51.3977 151.418 50.6648 150.384 50.1193C149.361 49.5739 148.145 49.3011 146.736 49.3011H138.946V60.483ZM138.946 45.1932H146.003C147.185 45.1932 148.247 44.9659 149.19 44.5114C150.145 44.0568 150.901 43.4205 151.457 42.6023C152.026 41.7727 152.31 40.7955 152.31 39.6705C152.31 38.2273 151.804 37.017 150.793 36.0398C149.781 35.0625 148.23 34.5739 146.139 34.5739H138.946V45.1932ZM181.261 54.142V38.8182H186.375V65H181.364V60.4659H181.091C180.489 61.8636 179.523 63.0284 178.193 63.9602C176.875 64.8807 175.233 65.3409 173.267 65.3409C171.585 65.3409 170.097 64.9716 168.801 64.233C167.517 63.483 166.506 62.375 165.767 60.9091C165.04 59.4432 164.676 57.6307 164.676 55.4716V38.8182H169.773V54.858C169.773 56.642 170.267 58.0625 171.256 59.1193C172.244 60.1761 173.528 60.7045 175.108 60.7045C176.063 60.7045 177.011 60.4659 177.955 59.9886C178.909 59.5114 179.699 58.7898 180.324 57.8239C180.96 56.858 181.273 55.6307 181.261 54.142ZM203.024 65.5114C200.911 65.5114 199.024 64.9716 197.365 63.892C195.717 62.8011 194.422 61.25 193.479 59.2386C192.547 57.2159 192.081 54.7898 192.081 51.9602C192.081 49.1307 192.553 46.7102 193.496 44.6989C194.45 42.6875 195.757 41.1477 197.416 40.0795C199.075 39.0114 200.956 38.4773 203.058 38.4773C204.683 38.4773 205.99 38.75 206.979 39.2955C207.979 39.8295 208.751 40.4545 209.297 41.1705C209.854 41.8864 210.286 42.517 210.592 43.0625H210.899V30.0909H215.996V65H211.018V60.9261H210.592C210.286 61.483 209.842 62.1193 209.263 62.8352C208.695 63.5511 207.911 64.1761 206.911 64.7102C205.911 65.2443 204.615 65.5114 203.024 65.5114ZM204.149 61.1648C205.615 61.1648 206.854 60.7784 207.865 60.0057C208.888 59.2216 209.661 58.1364 210.183 56.75C210.717 55.3636 210.984 53.75 210.984 51.9091C210.984 50.0909 210.723 48.5 210.2 47.1364C209.678 45.7727 208.911 44.7102 207.899 43.9489C206.888 43.1875 205.638 42.8068 204.149 42.8068C202.615 42.8068 201.337 43.2045 200.314 44C199.291 44.7955 198.518 45.8807 197.996 47.2557C197.484 48.6307 197.229 50.1818 197.229 51.9091C197.229 53.6591 197.49 55.233 198.013 56.6307C198.536 58.0284 199.308 59.1364 200.331 59.9545C201.365 60.7614 202.638 61.1648 204.149 61.1648ZM233.071 65.5114C230.957 65.5114 229.071 64.9716 227.412 63.892C225.764 62.8011 224.469 61.25 223.526 59.2386C222.594 57.2159 222.128 54.7898 222.128 51.9602C222.128 49.1307 222.599 46.7102 223.543 44.6989C224.497 42.6875 225.804 41.1477 227.463 40.0795C229.122 39.0114 231.003 38.4773 233.105 38.4773C234.73 38.4773 236.037 38.75 237.026 39.2955C238.026 39.8295 238.798 40.4545 239.344 41.1705C239.901 41.8864 240.332 42.517 240.639 43.0625H240.946V30.0909H246.043V65H241.065V60.9261H240.639C240.332 61.483 239.889 62.1193 239.31 62.8352C238.741 63.5511 237.957 64.1761 236.957 64.7102C235.957 65.2443 234.662 65.5114 233.071 65.5114ZM234.196 61.1648C235.662 61.1648 236.901 60.7784 237.912 60.0057C238.935 59.2216 239.707 58.1364 240.23 56.75C240.764 55.3636 241.031 53.75 241.031 51.9091C241.031 50.0909 240.77 48.5 240.247 47.1364C239.724 45.7727 238.957 44.7102 237.946 43.9489C236.935 43.1875 235.685 42.8068 234.196 42.8068C232.662 42.8068 231.384 43.2045 230.361 44C229.338 44.7955 228.565 45.8807 228.043 47.2557C227.531 48.6307 227.276 50.1818 227.276 51.9091C227.276 53.6591 227.537 55.233 228.06 56.6307C228.582 58.0284 229.355 59.1364 230.378 59.9545C231.412 60.7614 232.685 61.1648 234.196 61.1648ZM256.538 74.8182C255.777 74.8182 255.084 74.7557 254.459 74.6307C253.834 74.517 253.368 74.392 253.061 74.2557L254.288 70.0795C255.22 70.3295 256.05 70.4375 256.777 70.4034C257.504 70.3693 258.146 70.0966 258.703 69.5852C259.271 69.0739 259.771 68.2386 260.203 67.0795L260.834 65.3409L251.254 38.8182H256.709L263.339 59.1364H263.612L270.243 38.8182H275.714L264.925 68.4943C264.425 69.858 263.788 71.0114 263.016 71.9545C262.243 72.9091 261.322 73.625 260.254 74.1023C259.186 74.5795 257.947 74.8182 256.538 74.8182Z" fill="white"/>
<path d="M326.018 7.82736L325.616 7.57843C321.057 4.74684 317.046 2.25131 313.608 0.994213C311.713 0.250571 309.687 -0.0821716 307.659 0.0171588C305.525 0.183532 303.484 0.983947 301.79 2.31977C298.261 5.02067 296.737 8.99734 295.902 13.3972C295.091 17.6601 294.78 23.2113 294.396 29.9698L294.378 30.3183C294.146 34.3634 294 38.365 294 41.9931C294 45.6213 294.146 49.6291 294.378 53.6742L294.396 54.0165C294.78 60.775 295.091 66.3261 295.902 70.5828C296.737 74.9889 298.261 78.9594 301.79 81.6665C303.533 83.0045 305.49 83.8011 307.659 83.9691C309.744 84.1247 311.743 83.6766 313.608 82.992C317.046 81.7349 321.057 79.2394 325.616 76.414L326.018 76.1651C328.615 74.5471 331.163 72.8854 333.436 71.2487C336.22 69.2263 338.935 67.105 341.573 64.8885L341.878 64.6334C346.535 60.7563 350.485 57.4642 353.215 54.2281C356.19 50.6808 358 46.8722 358 41.9931C358 37.1141 356.19 33.2992 353.209 29.7582C350.485 26.5221 346.535 23.2237 341.884 19.3529L341.579 19.0977C338.812 16.7951 336.033 14.5921 333.436 12.7375C331.015 11.0195 328.541 9.37988 326.018 7.82114" fill="#E8222C"/>
<path d="M334.018 19.8274L333.616 19.5784C329.057 16.7468 325.046 14.2513 321.608 12.9942C319.713 12.2506 317.687 11.9178 315.659 12.0172C313.525 12.1835 311.484 12.9839 309.79 14.3198C306.261 17.0207 304.737 20.9973 303.902 25.3972C303.091 29.6601 302.78 35.2113 302.396 41.9698L302.378 42.3183C302.146 46.3634 302 50.365 302 53.9931C302 57.6213 302.146 61.6291 302.378 65.6742L302.396 66.0165C302.78 72.775 303.091 78.3261 303.902 82.5828C304.737 86.9889 306.261 90.9594 309.79 93.6665C311.533 95.0045 313.49 95.8011 315.659 95.9691C317.744 96.1247 319.743 95.6766 321.608 94.992C325.046 93.7349 329.057 91.2394 333.616 88.414L334.018 88.1651C336.615 86.5471 339.163 84.8854 341.436 83.2487C344.22 81.2263 346.935 79.105 349.573 76.8885L349.878 76.6334C354.535 72.7563 358.485 69.4642 361.215 66.2281C364.19 62.6808 366 58.8722 366 53.9931C366 49.1141 364.19 45.2992 361.209 41.7582C358.485 38.5221 354.535 35.2237 349.884 31.3529L349.579 31.0977C346.812 28.7951 344.033 26.5921 341.436 24.7375C339.015 23.0195 336.541 21.3799 334.018 19.8211" fill="#2C2C2C"/>
</svg>
