<svg width="19" height="24" viewBox="0 0 19 24" fill="none" xmlns="http://www.w3.org/2000/svg">
<path d="M8.25457 1.95684L8.154 1.89461C7.01419 1.18671 6.01152 0.562828 5.1521 0.248553C4.67832 0.0626427 4.17183 -0.0205429 3.66486 0.0042897C3.13118 0.045883 2.62108 0.245987 2.19743 0.579942C1.31514 1.25517 0.93419 2.24934 0.725428 3.3493C0.522762 4.41503 0.445048 5.80282 0.349048 7.49244L0.344476 7.57957C0.286571 8.59085 0.25 9.59124 0.25 10.4983C0.25 11.4053 0.286571 12.4073 0.344476 13.4186L0.349048 13.5041C0.445048 15.1937 0.522762 16.5815 0.725428 17.6457C0.93419 18.7472 1.31514 19.7398 2.19743 20.4166C2.63324 20.7511 3.12238 20.9503 3.66486 20.9923C4.186 21.0312 4.68581 20.9191 5.1521 20.748C6.01152 20.4337 7.01419 19.8099 8.154 19.1035L8.25457 19.0413C8.90372 18.6368 9.54067 18.2214 10.109 17.8122C10.8051 17.3066 11.4836 16.7762 12.1433 16.2221L12.2195 16.1583C13.3837 15.1891 14.3711 14.366 15.0538 13.557C15.7974 12.6702 16.25 11.718 16.25 10.4983C16.25 9.27852 15.7974 8.3248 15.0523 7.43954C14.3711 6.63052 13.3837 5.80593 12.221 4.83822L12.1449 4.77443C11.453 4.19877 10.7582 3.64801 10.109 3.18438C9.5037 2.75487 8.88524 2.34497 8.25457 1.95528" fill="#E8222C"/>
<path d="M10.2546 4.95684L10.154 4.89461C9.01419 4.18671 8.01152 3.56283 7.1521 3.24855C6.67832 3.06264 6.17183 2.97946 5.66486 3.00429C5.13118 3.04588 4.62108 3.24599 4.19743 3.57994C3.31514 4.25517 2.93419 5.24934 2.72543 6.3493C2.52276 7.41503 2.44505 8.80282 2.34905 10.4924L2.34448 10.5796C2.28657 11.5908 2.25 12.5912 2.25 13.4983C2.25 14.4053 2.28657 15.4073 2.34448 16.4186L2.34905 16.5041C2.44505 18.1937 2.52276 19.5815 2.72543 20.6457C2.93419 21.7472 3.31514 22.7398 4.19743 23.4166C4.63324 23.7511 5.12238 23.9503 5.66486 23.9923C6.186 24.0312 6.68581 23.9191 7.1521 23.748C8.01152 23.4337 9.01419 22.8099 10.154 22.1035L10.2546 22.0413C10.9037 21.6368 11.5407 21.2214 12.109 20.8122C12.8051 20.3066 13.4836 19.7762 14.1433 19.2221L14.2195 19.1583C15.3837 18.1891 16.3711 17.366 17.0538 16.557C17.7974 15.6702 18.25 14.718 18.25 13.4983C18.25 12.2785 17.7974 11.3248 17.0523 10.4395C16.3711 9.63052 15.3837 8.80593 14.221 7.83822L14.1449 7.77443C13.453 7.19877 12.7582 6.64801 12.109 6.18438C11.5037 5.75487 10.8852 5.34497 10.2546 4.95528" fill="#2C2C2C"/>
</svg>
