<svg width="83" height="29" viewBox="0 0 83 29" fill="none" xmlns="http://www.w3.org/2000/svg">
<path fill-rule="evenodd" clip-rule="evenodd" d="M0.25 16.875V0H7.75V9.375H15.25C17.2391 9.375 19.1468 10.1652 20.5533 11.5717C21.9598 12.9782 22.75 14.8859 22.75 16.875V28.125H15.25V16.875H7.75V28.125H0.25V16.875ZM24.625 9.375V20.625C24.625 22.6141 25.4152 24.5218 26.8217 25.9283C28.2282 27.3348 30.1359 28.125 32.125 28.125H39.625C41.6141 28.125 43.5218 27.3348 44.9283 25.9283C46.3348 24.5218 47.125 22.6141 47.125 20.625V9.375H39.625V20.625H32.125V9.375H24.625ZM60.25 20.625V9.375H67.75V20.625H75.25V9.375H82.75V20.625C82.75 22.6141 81.9598 24.5218 80.5533 25.9283C79.1468 27.3348 77.2391 28.125 75.25 28.125H67.75C65.7609 28.125 63.8532 27.3348 62.4467 25.9283C61.0402 24.5218 60.25 22.6141 60.25 20.625ZM49.9375 0V28.125H57.4375V0H49.9375Z" fill="black"/>
</svg>
