<svg width="76" height="54" viewBox="0 0 76 54" fill="none" xmlns="http://www.w3.org/2000/svg">
<path d="M75.5 26.7713C75.5353 20.7358 75.0206 14.7096 73.9625 8.76752C73.4946 7.19921 72.6243 5.7807 71.4381 4.65308C70.2519 3.52546 68.7912 2.728 67.2012 2.34002C57.4817 1.20158 47.6991 0.688029 37.9137 0.802522C28.13 0.690022 18.35 1.21502 8.63372 2.37752C7.05639 2.81217 5.61892 3.64889 4.46201 4.80581C3.30509 5.96272 2.46837 7.40019 2.03372 8.97752C0.976222 14.9184 0.464091 20.9434 0.503722 26.9775C0.466222 33.015 0.979973 39.0375 2.03747 44.9775C2.47973 46.5723 3.32674 48.0256 4.49629 49.1965C5.66585 50.3673 7.11823 51.216 8.71247 51.66C18.4325 52.7963 28.2125 53.31 38 53.1938C47.757 53.3258 57.512 52.8122 67.2012 51.6563C68.777 51.2217 70.2131 50.3859 71.3692 49.2304C72.5254 48.0749 73.362 46.6393 73.7975 45.0638C74.9487 39.0338 75.5225 32.9063 75.5 26.7713ZM47.7087 28.9538L32.69 37.47C32.3875 37.636 32.047 37.7204 31.702 37.7149C31.357 37.7094 31.0194 37.6142 30.7224 37.4386C30.4254 37.2631 30.1792 37.0132 30.008 36.7136C29.8368 36.414 29.7466 36.0751 29.7462 35.73V18.06C29.7418 17.7138 29.8297 17.3726 30.0008 17.0716C30.1719 16.7706 30.4201 16.5205 30.7198 16.3472C31.0195 16.1738 31.36 16.0834 31.7063 16.0852C32.0525 16.0871 32.3921 16.181 32.69 16.3575L48.2037 25.275C48.5028 25.4514 48.7493 25.7045 48.9178 26.0081C49.0863 26.3116 49.1707 26.6547 49.1623 27.0017C49.1539 27.3488 49.053 27.6874 48.8699 27.9824C48.6869 28.2775 48.4284 28.5183 48.1212 28.68L47.7087 28.9538Z" fill="black"/>
</svg>
