<svg width="75" height="22" viewBox="0 0 75 22" fill="none" xmlns="http://www.w3.org/2000/svg">
<path d="M10.3125 19.9625C9.1875 20.165 8.03625 20.225 6.8475 20.3862L3.225 9.61249V20.8475C2.1 20.9712 1.06875 21.1325 0 21.2937V0.706238H3.0075L7.125 12.3875V0.706238H10.3125V19.9625ZM16.5487 8.24374C17.775 8.24374 19.6575 8.18374 20.7863 8.18374V11.4012C19.38 11.4012 17.7338 11.4012 16.5487 11.4612V16.2462C18.4088 16.1262 20.2688 15.965 22.1513 15.905V18.9987L13.38 19.7037V0.706238H22.1513V3.92374H16.5487V8.24374ZM33.9263 3.92374H30.6412V18.7175C29.5725 18.7175 28.5037 18.7175 27.4762 18.7587V3.92374H24.1875V0.706238H33.9263V3.92374ZM39.075 8.02249H43.41V11.24H39.075V18.5375H35.9625V0.706238H44.8125V3.92374H39.075V8.02249ZM49.9613 15.7212C51.7612 15.7625 53.5838 15.905 55.3463 16.0025V19.1825C52.4996 18.9799 49.649 18.8386 46.7962 18.7587V0.706238H49.9613V15.7212ZM58.0163 19.4037C59.0288 19.4637 60.0937 19.5237 61.125 19.6437V0.706238H58.0163V19.4037ZM75 0.706238L70.98 10.4937L75 21.2975C73.8112 21.1362 72.6262 20.915 71.4375 20.7125L69.1613 14.7612L66.8438 20.2287C65.6963 20.03 64.59 19.9662 63.4425 19.8087L67.5187 10.3812L63.8363 0.706238H67.2412L69.3188 6.11749L71.535 0.709986L75 0.706238Z" fill="black"/>
</svg>
