<svg width="84" height="78" viewBox="0 0 84 78" fill="none" xmlns="http://www.w3.org/2000/svg">
<path d="M72.6825 14.265C73.4576 14.3887 74.2413 14.4514 75.0262 14.4525C75.457 14.4823 75.8898 14.4444 76.3087 14.34C76.6445 14.3135 76.9657 14.1913 77.2342 13.9879C77.5026 13.7846 77.7072 13.5085 77.8237 13.1925C77.9228 12.8566 77.942 12.5022 77.88 12.1575C77.8564 11.8856 77.7591 11.6252 77.5985 11.4045C77.438 11.1838 77.2202 11.0111 76.9687 10.905C76.6327 10.7689 76.2768 10.6879 75.915 10.665C75.2603 10.5846 74.5975 10.7251 74.0317 11.064C73.4658 11.403 73.0293 11.9211 72.7912 12.5362C72.6016 12.9754 72.4729 13.4385 72.4087 13.9125C72.3862 14.2425 72.3862 14.2425 72.6825 14.265ZM68.655 12.765C69.0083 11.3785 69.7907 10.1391 70.8905 9.22388C71.9903 8.30864 73.3511 7.76434 74.7787 7.66874C76.112 7.49867 77.4664 7.62937 78.7425 8.05124C81.1987 8.89124 82.5262 11.5462 81.72 14.0137C81.425 14.9627 80.7655 15.7557 79.8862 16.2187C79.1136 16.6245 78.276 16.8922 77.4112 17.01C75.9104 17.2523 74.3789 17.232 72.885 16.95C72.7049 16.9078 72.5219 16.8789 72.3375 16.8637C72.2541 17.6883 72.4839 18.514 72.9814 19.1768C73.4788 19.8396 74.2075 20.291 75.0225 20.4412C76.2546 20.6814 77.5216 20.6814 78.7537 20.4412C79.3312 20.3175 79.8862 20.1975 80.4637 20.0587C81.0412 19.92 81.2812 20.1037 81.2812 20.6962V22.1662C81.306 22.383 81.2512 22.6013 81.127 22.7806C81.0029 22.96 80.8178 23.0881 80.6062 23.1412C79.8491 23.438 79.062 23.6517 78.2587 23.7787C76.752 24.0479 75.2084 24.0352 73.7062 23.7412C72.4767 23.5472 71.3335 22.989 70.4244 22.1387C69.5153 21.2884 68.882 20.1851 68.6062 18.9712C68.0308 16.9382 68.0516 14.7827 68.6662 12.7612L68.655 12.765ZM69.8437 36.6412C71.1061 36.4408 72.3955 36.4905 73.6387 36.7875C75.0283 37.1707 76.2728 37.958 77.2142 39.0496C78.1556 40.1412 78.7515 41.4879 78.9262 42.9187V42.96H78.8737V43.335C78.8596 43.3884 78.8606 43.4447 78.8765 43.4977C78.8924 43.5506 78.9226 43.5981 78.9637 43.635V43.5562L78.99 43.5937V45.8812L78.945 45.96V45.9225C78.8325 45.9975 78.87 46.0987 78.87 46.2225V46.5C78.69 49.875 76.0687 52.6125 72.705 52.9387C71.4566 53.1164 70.1856 53.0501 68.9625 52.7437C67.8898 52.5088 66.896 52.0008 66.0774 51.2689C65.2588 50.537 64.6431 49.606 64.29 48.5662C63.3724 46.144 63.3724 43.4698 64.29 41.0475C65.1112 38.61 67.29 36.885 69.8475 36.6412H69.8437ZM42 8.79749C42 8.63499 42.02 8.47624 42.06 8.32124C42.1033 8.20982 42.1789 8.11388 42.2771 8.04573C42.3754 7.97758 42.4917 7.94032 42.6112 7.93874H45.1237C45.284 7.93964 45.4392 7.99454 45.5644 8.09456C45.6896 8.19458 45.7775 8.33389 45.8137 8.48999C45.9187 8.77124 45.9787 9.04124 46.0762 9.32624C46.275 9.32624 46.3987 9.19124 46.5337 9.11249C47.6099 8.39275 48.8142 7.8861 50.0812 7.61999C51.065 7.42049 52.0787 7.42049 53.0625 7.61999C54 7.82249 54.825 8.37749 55.3687 9.16874L55.4812 9.31124V9.36374C55.9762 9.06749 56.4975 8.74874 57.0375 8.47499C58.4288 7.75559 59.9838 7.41177 61.5487 7.47749C62.0714 7.45997 62.5924 7.54578 63.0819 7.72998C63.5714 7.91418 64.0197 8.19316 64.4011 8.55092C64.7826 8.90869 65.0897 9.33822 65.3049 9.81489C65.52 10.2916 65.639 10.806 65.655 11.3287V22.4437C65.655 23.3362 65.5425 23.4562 64.6425 23.4562H62.2162C62.0589 23.4662 61.9011 23.4662 61.7437 23.4562C61.6256 23.4407 61.5154 23.388 61.4292 23.3057C61.3429 23.2235 61.285 23.116 61.2637 22.9987C61.232 22.7815 61.2195 22.5619 61.2262 22.3425V13.1287C61.2395 12.7584 61.1978 12.3881 61.1025 12.03C61.0203 11.7285 60.8461 11.4602 60.6041 11.2625C60.362 11.0649 60.0643 10.9477 59.7525 10.9275C58.575 10.8547 57.3983 11.0818 56.3325 11.5875C56.2573 11.6106 56.1926 11.6592 56.1495 11.7249C56.1064 11.7906 56.0875 11.8694 56.0962 11.9475V22.4025C56.0988 22.5969 56.0863 22.7913 56.0587 22.9837C56.0587 23.2462 55.8412 23.46 55.5787 23.46H52.5412C51.8025 23.46 51.6412 23.2837 51.6412 22.5487V13.125C51.6488 12.7774 51.6161 12.4301 51.5437 12.09C51.4762 11.7654 51.3031 11.4724 51.0514 11.2566C50.7997 11.0409 50.4836 10.9146 50.1525 10.8975C48.9541 10.8257 47.7571 11.0579 46.6725 11.5725C46.5925 11.5953 46.5246 11.6484 46.4833 11.7206C46.4419 11.7928 46.4304 11.8782 46.4512 11.9587V22.5825C46.4512 23.3137 46.2862 23.4675 45.555 23.4675H42.915C42.21 23.4675 42.0337 23.2687 42.0337 22.5975L42 8.79749ZM52.1625 45.9975C52.0734 45.9664 51.9793 45.9524 51.885 45.9562C51.9227 46.3664 51.9942 46.7728 52.0987 47.1712C52.3987 48.435 53.4412 49.3837 54.7237 49.5562C56.079 49.7875 57.4673 49.7403 58.8037 49.4175C59.2376 49.3222 59.669 49.2159 60.0975 49.0987C60.675 48.96 60.9337 49.185 60.9337 49.7362V51.18C60.973 51.4091 60.9202 51.6445 60.7867 51.8348C60.6533 52.0252 60.45 52.1551 60.2212 52.1962C58.8522 52.7109 57.4049 52.9862 55.9425 53.01C54.9387 53.0449 53.9348 52.9453 52.9575 52.7137C51.8855 52.4781 50.8968 51.9582 50.0951 51.2087C49.2934 50.4591 48.7083 49.5075 48.4012 48.4537C47.6927 46.2942 47.6665 43.9687 48.3262 41.7937C48.7353 40.2921 49.6374 38.9717 50.8875 38.0447C52.1376 37.1176 53.6631 36.6379 55.2187 36.6825C56.2229 36.642 57.2268 36.77 58.1887 37.0612C59.8387 37.5225 61.095 38.8612 61.4437 40.5412C61.5887 41.2678 61.5887 42.0159 61.4437 42.7425C61.3396 43.309 61.1038 43.843 60.7553 44.3016C60.4068 44.7602 59.9554 45.1304 59.4375 45.3825C58.397 45.9023 57.2583 46.1962 56.0962 46.245C54.7722 46.3282 53.4429 46.2438 52.14 45.9937L52.1625 45.9975ZM40.4137 37.74C40.515 37.6012 40.4587 37.4587 40.4587 37.32V30.9262C40.4587 30.1687 40.5975 30.0337 41.3512 30.0337H44.1037C44.7075 30.0562 44.88 30.1987 44.88 30.8137V51.7612C44.88 52.3125 44.6962 52.515 44.145 52.515H41.5575C41.3965 52.516 41.2399 52.4624 41.1132 52.363C40.9865 52.2635 40.8973 52.1241 40.86 51.9675C40.8171 51.7284 40.7453 51.4955 40.6462 51.2737C40.4662 51.3037 40.3875 51.4425 40.245 51.525C39.4028 52.1906 38.407 52.6342 37.3489 52.815C36.2908 52.9959 35.2042 52.9082 34.1887 52.56C33.4367 52.3167 32.7431 51.9206 32.1514 51.3966C31.5596 50.8726 31.0825 50.232 30.75 49.515C30.0896 48.2003 29.7479 46.7487 29.7525 45.2775C29.664 43.7141 29.9028 42.1495 30.4537 40.6837C30.9827 39.1426 32.0947 37.8703 33.5512 37.14C35.6212 36.1537 38.0512 36.315 39.975 37.5562C40.1031 37.6614 40.253 37.737 40.4137 37.7775V37.74ZM37.425 23.4262H34.6762C34.5829 23.438 34.4884 23.438 34.395 23.4262C34.2551 23.4266 34.1202 23.3737 34.0179 23.2783C33.9155 23.1829 33.8533 23.0521 33.8437 22.9125V8.59874C33.8437 8.12249 34.0462 7.93874 34.5187 7.92374C35.5536 7.90231 36.5888 7.90231 37.6237 7.92374C38.0812 7.92374 38.22 8.06249 38.2612 8.51624V22.2787C38.2682 22.4994 38.2556 22.7203 38.2237 22.9387C38.2112 23.0589 38.1558 23.1706 38.0676 23.2532C37.9795 23.3359 37.8645 23.384 37.7437 23.3887H37.41L37.425 23.4262ZM33.5062 2.98874C33.5354 2.37855 33.8051 1.80477 34.2563 1.39293C34.7075 0.9811 35.3034 0.764755 35.9137 0.791236H36.1537C36.4693 0.779928 36.7844 0.825661 37.0837 0.926236C37.5999 1.08952 38.04 1.43347 38.3231 1.89497C38.6062 2.35647 38.7134 2.90458 38.625 3.43874C38.5823 3.93809 38.3713 4.40814 38.0266 4.77193C37.6818 5.13573 37.2238 5.37171 36.7275 5.44124C36.2873 5.52063 35.8364 5.52063 35.3962 5.44124C35.1096 5.40292 34.8333 5.30849 34.5831 5.16336C34.333 5.01822 34.1139 4.82521 33.9384 4.59536C33.7629 4.36551 33.6344 4.10333 33.5602 3.8238C33.4861 3.54427 33.4677 3.25286 33.5062 2.96624V2.98874ZM21.9112 22.4887V8.93624C21.9112 8.02124 22.0087 7.92374 22.9237 7.92374H24.8362C24.939 7.90892 25.0436 7.91454 25.1441 7.9403C25.2447 7.96605 25.3391 8.01142 25.422 8.0738C25.505 8.13618 25.5748 8.21434 25.6274 8.30378C25.68 8.39323 25.7145 8.49219 25.7287 8.59499C25.8675 9.08999 25.9912 9.58499 26.1037 10.125C26.2431 10.0874 26.3643 10.0009 26.445 9.88124C26.8064 9.52473 27.1856 9.18679 27.5812 8.86874C28.6081 8.06655 29.8966 7.67491 31.1962 7.76999C31.7137 7.76999 31.8937 7.94999 31.935 8.44499C31.9725 9.11999 31.935 9.82124 31.935 10.4925C31.9504 10.7683 31.9353 11.045 31.89 11.3175C31.889 11.463 31.8305 11.6023 31.7272 11.7049C31.6239 11.8074 31.4843 11.865 31.3387 11.865C31.0639 11.8801 30.7885 11.8801 30.5137 11.865C29.2056 11.7774 27.8936 11.9652 26.6625 12.4162C26.385 12.5137 26.385 12.7125 26.385 12.9337V22.9762C26.3774 23.099 26.3238 23.2143 26.2348 23.2992C26.1457 23.384 26.0279 23.4321 25.905 23.4337C25.7402 23.4446 25.5748 23.4446 25.41 23.4337V23.4712H22.8225C22.6764 23.4798 22.5299 23.4798 22.3837 23.4712C22.2615 23.4522 22.149 23.3933 22.0636 23.3039C21.9781 23.2144 21.9246 23.0992 21.9112 22.9762V22.4887ZM25.3012 34.5937C25.0628 34.6324 24.8197 34.6324 24.5812 34.5937C24.3595 34.5883 24.1386 34.5632 23.9212 34.5187C23.344 34.3975 22.8375 34.0545 22.5107 33.5636C22.1838 33.0727 22.0629 32.473 22.1737 31.8937C22.2203 31.3564 22.4626 30.8549 22.8546 30.4843C23.2465 30.1138 23.7609 29.9001 24.3 29.8837C24.4383 29.8683 24.5779 29.8683 24.7162 29.8837C25.1183 29.8515 25.522 29.9212 25.89 30.0862C26.67 30.3787 27.2025 31.1062 27.2437 31.9387C27.2929 32.2426 27.2817 32.5533 27.2107 32.8528C27.1396 33.1524 27.0101 33.4349 26.8297 33.6844C26.6492 33.9338 26.4213 34.1451 26.1591 34.3063C25.8968 34.4675 25.6053 34.5754 25.3012 34.6237V34.5937ZM26.9512 37.8V51.915C26.9637 52.0601 26.9183 52.2043 26.8248 52.316C26.7314 52.4277 26.5975 52.4979 26.4525 52.5112H23.1525C23.0085 52.5271 22.864 52.4857 22.7503 52.3958C22.6366 52.306 22.5628 52.175 22.545 52.0312V51.9337C22.5387 51.8088 22.5387 51.6837 22.545 51.5587V37.7962C22.545 37.1812 22.7137 37.0087 23.3325 37.0087H26.1487C26.7637 37.035 26.94 37.2112 26.94 37.8262L26.9512 37.8ZM20.535 37.9762L19.3462 41.1412L15.345 51.5437C15.3075 51.6637 15.2437 51.78 15.2062 51.9C15.1364 52.1038 15.001 52.2787 14.8212 52.3975C14.6414 52.5162 14.4274 52.572 14.2125 52.5562H11.58C11.3161 52.5865 11.0501 52.5205 10.831 52.3703C10.6119 52.2201 10.4544 51.9958 10.3875 51.7387C9.88874 50.43 9.37499 49.0987 8.87624 47.7825C7.68374 44.6625 6.47249 41.535 5.27624 38.3925C5.16193 38.144 5.07516 37.8836 5.01749 37.6162C4.95749 37.2225 5.09624 37.0237 5.49749 37.0237H8.87624C9.35624 37.0237 9.56999 37.3425 9.69374 37.7587C9.91124 38.5125 10.1325 39.2887 10.3687 40.0462C11.1825 42.795 11.9812 45.5925 12.7912 48.36H12.8287L13.1887 47.205L15.9375 37.98L16.0537 37.6237C16.1084 37.4572 16.2161 37.3132 16.3603 37.2137C16.5046 37.1141 16.6774 37.0646 16.8525 37.0725H19.8975C20.6475 37.0612 20.8087 37.275 20.5575 37.9912L20.535 37.9762ZM3.69749 8.32499C3.85229 8.17129 4.0403 8.05519 4.24705 7.98562C4.4538 7.91605 4.67376 7.89488 4.88999 7.92374H6.71999C6.92564 7.89815 7.1331 7.95466 7.29736 8.08102C7.46163 8.20738 7.56947 8.3934 7.59749 8.59874C7.62999 8.79874 7.67624 8.99874 7.73624 9.19874C7.74049 9.21524 7.75023 9.2298 7.76386 9.24002C7.7775 9.25025 7.7942 9.25552 7.81124 9.25499C7.96485 9.17927 8.10437 9.0778 8.22374 8.95499C9.05135 8.30053 10.016 7.84128 11.0458 7.61143C12.0755 7.38158 13.1439 7.38707 14.1712 7.62749C15.9712 8.05874 17.4487 9.32999 18.15 11.04C18.57 11.9881 18.8298 12.9993 18.9187 14.0325H18.8887C19.08 15.6975 18.93 17.3812 18.4462 18.9862C18.0712 20.2531 17.3581 21.3939 16.3837 22.2862C15.1087 23.4337 13.4025 23.9662 11.7037 23.7412C10.4464 23.6148 9.24971 23.138 8.24999 22.365C8.10374 22.4887 8.16749 22.6425 8.16749 22.7887V28.4362C8.16749 29.67 8.16749 29.67 6.91499 29.67H4.76999C4.56013 29.708 4.34373 29.6835 4.1477 29.5995C3.95168 29.5155 3.78468 29.3757 3.66749 29.1975L3.69749 8.32499ZM76.335 65.4187C76.174 65.715 75.9484 65.9714 75.675 66.1687C73.3853 67.9699 70.9204 69.5365 68.3175 70.845C63.4035 73.3312 58.1611 75.1065 52.7475 76.1175C49.6376 76.6749 46.4923 77.0132 43.335 77.13V77.2125H40.9012V77.145C39.8025 77.0925 38.7337 77.0475 37.6462 76.9687C34.7471 76.7461 31.8689 76.3049 29.0362 75.6487C19.4306 73.4152 10.5478 68.7835 3.21749 62.1862C2.52374 61.5712 1.86749 60.9375 1.19249 60.3C1.02682 60.1482 0.897382 59.9611 0.813736 59.7525C0.736362 59.5763 0.73155 59.3767 0.800344 59.197C0.869137 59.0173 1.00599 58.872 1.18124 58.7925C1.35832 58.7225 1.5554 58.7225 1.73249 58.7925C1.91139 58.8653 2.08441 58.9518 2.24999 59.0512C9.38527 63.4681 17.1926 66.6929 25.365 68.5987C28.1028 69.2372 30.8714 69.7354 33.66 70.0912C37.6556 70.5906 41.6843 70.7736 45.7087 70.6387C47.8716 70.5661 50.0294 70.3833 52.1737 70.0912C57.1889 69.4476 62.1305 68.3224 66.93 66.7312C69.4485 65.8997 71.9186 64.9282 74.3287 63.8212C74.6918 63.6193 75.1176 63.5617 75.5212 63.66C75.8378 63.7398 76.11 63.9414 76.2785 64.2209C76.4471 64.5005 76.4984 64.8353 76.4212 65.1525L76.3387 65.4L76.335 65.4187ZM80.19 70.9987C79.5536 72.0452 78.7777 73.0002 77.8837 73.8375C77.7088 74.0233 77.4894 74.1614 77.2462 74.2387C77.1732 74.2685 77.0938 74.279 77.0156 74.2693C76.9373 74.2597 76.8629 74.2301 76.7993 74.1835C76.7357 74.1368 76.6852 74.0747 76.6525 74.003C76.6198 73.9312 76.606 73.8523 76.6125 73.7737C76.6315 73.5656 76.6795 73.3611 76.755 73.1662C77.4487 71.3062 78.1275 69.4537 78.6675 67.5262C78.9795 66.4726 79.2053 65.3953 79.3425 64.305C79.3797 63.9084 79.3797 63.5091 79.3425 63.1125C79.3383 62.784 79.229 62.4655 79.0305 62.2036C78.8321 61.9418 78.5551 61.7504 78.24 61.6575C77.6219 61.4565 76.9802 61.3368 76.3312 61.3012C74.504 61.2222 72.6733 61.3025 70.86 61.5412L68.4562 61.8412C68.1937 61.8412 67.9612 61.8412 67.8187 61.5975C67.76 61.4857 67.7337 61.3597 67.743 61.2337C67.7523 61.1078 67.7967 60.9869 67.8712 60.885C68.0379 60.6642 68.2438 60.4761 68.4787 60.33C69.9517 59.3206 71.6058 58.605 73.35 58.2225C74.7056 57.9531 76.082 57.8012 77.4637 57.7687C78.7637 57.7737 80.0487 57.925 81.3187 58.2225C81.6754 58.3158 82.0221 58.4439 82.3537 58.605C82.8075 58.7925 83.1262 59.2125 83.175 59.7037C83.2574 60.2686 83.275 60.8411 83.2275 61.41C82.9705 64.7878 81.9361 68.0606 80.205 70.9725L80.19 70.9987ZM70.6275 49.5487C70.9997 49.6181 71.3802 49.6308 71.7562 49.5862C72.1324 49.5502 72.4963 49.4334 72.8231 49.2437C73.15 49.0541 73.432 48.7961 73.65 48.4875C73.8986 48.1369 74.085 47.7462 74.2012 47.3325L74.1675 47.385C74.4126 46.5612 74.5066 45.6998 74.445 44.8425C74.4629 44.4765 74.4629 44.1098 74.445 43.7437C74.4091 42.965 74.2219 42.2008 73.8937 41.4937C73.7206 41.1352 73.4672 40.8215 73.153 40.5769C72.8389 40.3323 72.4725 40.1636 72.0825 40.0837C71.7098 40.0075 71.3269 39.9948 70.95 40.0462C70.5383 40.077 70.1398 40.2044 69.7866 40.4181C69.4335 40.6319 69.1357 40.9258 68.9175 41.2762C68.6653 41.6817 68.4792 42.1248 68.3662 42.5887C68.125 43.7388 68.0719 44.9204 68.2087 46.0875C68.2707 46.7719 68.4575 47.4392 68.76 48.0562C68.9257 48.4375 69.1822 48.7725 69.507 49.032C69.8319 49.2915 70.2152 49.4676 70.6237 49.545L70.6275 49.5487ZM57.4162 42.1987C57.5139 41.9442 57.5515 41.6706 57.5263 41.3992C57.501 41.1277 57.4135 40.8657 57.2706 40.6336C57.1277 40.4014 56.9332 40.2054 56.7022 40.0606C56.4712 39.9158 56.21 39.8262 55.9387 39.7987C55.8412 39.7987 55.7625 39.7612 55.665 39.7612C55.1233 39.6654 54.5657 39.7204 54.0531 39.9201C53.5405 40.1198 53.0928 40.4567 52.7587 40.8937C52.3253 41.5425 52.054 42.2858 51.9675 43.0612C51.9112 43.2375 52.005 43.32 52.185 43.335C52.9824 43.4529 53.7865 43.5193 54.5925 43.5337C55.005 43.5562 55.415 43.5237 55.8225 43.4362C56.1836 43.4206 56.531 43.2931 56.8165 43.0714C57.1021 42.8497 57.3116 42.5448 57.4162 42.1987ZM34.9875 41.2425C34.8173 41.5508 34.6839 41.8781 34.59 42.2175C34.2769 43.4377 34.1942 44.7057 34.3462 45.9562C34.4032 46.6547 34.5901 47.3364 34.8975 47.9662C35.1042 48.3672 35.4068 48.7109 35.7784 48.9667C36.1501 49.2225 36.5791 49.3825 37.0275 49.4325C38.1045 49.5888 39.2028 49.3802 40.1475 48.84C40.2508 48.7916 40.337 48.713 40.3946 48.6146C40.4522 48.5161 40.4785 48.4025 40.47 48.2887V44.6662H40.4962C40.4962 43.455 40.4587 42.2625 40.4962 41.0362C40.5093 40.9127 40.481 40.7882 40.4159 40.6824C40.3508 40.5766 40.2524 40.4953 40.1362 40.4512C39.1813 40.0011 38.1244 39.811 37.0725 39.9C36.6394 39.9279 36.2207 40.0658 35.8558 40.3007C35.4909 40.5356 35.1921 40.8598 34.9875 41.2425ZM11.4562 20.4412C12.1311 20.4334 12.7806 20.1832 13.2862 19.7362C13.7491 19.3133 14.0677 18.7559 14.1975 18.1425C14.513 16.9162 14.5956 15.6417 14.4412 14.385C14.4003 13.6843 14.2286 12.9975 13.935 12.36C13.7676 11.9796 13.5058 11.6483 13.1743 11.3975C12.8429 11.1468 12.4528 10.985 12.0412 10.9275C10.8757 10.7192 9.67409 10.8997 8.62124 11.4412C8.49709 11.4861 8.39121 11.5707 8.32003 11.6819C8.24884 11.7931 8.21631 11.9247 8.22749 12.0562V19.245C8.22024 19.3604 8.24876 19.4753 8.30915 19.5739C8.36955 19.6726 8.45888 19.7502 8.56499 19.7962C9.45257 20.2684 10.4524 20.4889 11.4562 20.4337" fill="black"/>
</svg>
