<svg width="84" height="76" viewBox="0 0 84 76" fill="none" xmlns="http://www.w3.org/2000/svg">
<path d="M4.71 18.6275C2.895 18.6275 0.75 18.3875 0.75 17.3113C0.75 9.72503 14.1075 9.39878 19.8 9.39878C27.2175 9.39878 36.6975 11.7013 44.775 14.5888C57.0637 19.0438 81.9637 33.8825 81.9637 50.8663C81.9637 65.87 65.8012 73.0438 50.7975 73.0438C46.7601 72.9265 42.7368 72.5129 38.76 71.8063C38.5125 72.7175 38.3475 73.3738 37.77 75.2713C36.8193 75.4667 35.8529 75.5759 34.8825 75.5975L32.9888 75.4363C31.7513 73.9513 31.3387 71.5625 30.8437 69.005C23.3437 64.6363 18.4762 60.9238 16.2525 58.37C14.355 56.39 12.21 53.75 12.21 51.1963C12.21 49.88 13.035 48.7213 14.9325 47.4088C18.81 44.5213 23.7525 42.9538 31.8337 41.5475L31.9988 38.1725C32.0813 37.3475 32.9062 28.5238 34.8038 26.8738C37.8525 29.3488 38.1825 31.9025 38.43 35.6975C38.5125 37.3475 38.595 39.0763 38.8425 40.8913H39.9975C45.7687 40.8913 63.4125 42.3725 63.4125 50.7013C63.4125 52.6813 60.525 56.39 57.72 56.39C56.4383 56.3661 55.1869 55.9969 54.0975 55.3213C55.3312 53.915 57.1462 52.6813 57.6412 51.6088C55.9912 49.6288 47.0887 47.3225 40.575 47.3225C39.8589 47.2988 39.1421 47.3263 38.43 47.405L38.5125 65.4613C41.1488 67.1113 44.3663 67.2725 46.425 67.2725C55.5 67.2725 74.2913 65.7088 74.2913 51.0313C74.2913 36.5188 55.7437 25.3063 41.8913 20.0338C32.416 16.2915 22.3149 14.3876 12.1275 14.4238C9.85146 14.3853 7.57969 14.6347 5.36625 15.1663C3.9675 15.4963 3.4725 15.8263 3.4725 16.1563C3.4725 16.73 6.27375 17.0638 6.6075 17.2288C6.72475 17.296 6.82369 17.391 6.89562 17.5054C6.96755 17.6199 7.01026 17.7502 7.02 17.885C7.00071 18.1398 6.88222 18.3768 6.69 18.545C6.35625 18.545 5.6175 18.6275 4.71 18.6275ZM31.5 47.5663C23.34 48.23 14.2688 49.055 14.2688 51.9388C14.2688 54.1663 18.0637 56.8888 20.37 58.6175C23.4274 61.0088 26.9739 62.6975 30.7575 63.5638L31.5 47.5663ZM73.3312 10.6288C73.2562 12.2338 73.1738 14.1613 73.1738 17.09C73.1738 18.215 73.1738 19.4975 73.2113 20.9413C73.0537 21.665 72.0113 21.7438 71.4863 21.9838C71.1355 21.7877 70.8127 21.5456 70.5263 21.2638V11.1125C70.5263 10.025 70.5638 8.90753 70.5638 7.22003C70.5638 6.37628 70.5638 5.41253 70.5263 4.25003C70.5263 3.53003 70.6462 2.84753 71.0888 1.24253C71.1735 1.00777 71.3252 0.803047 71.5252 0.653729C71.7252 0.504411 71.9646 0.417067 72.2137 0.402527C73.1325 0.642527 74.055 1.04003 74.3775 1.80503C73.4137 4.65503 73.4962 7.78253 73.3312 10.6288ZM71.8913 10.31C73.4963 10.3888 75.42 10.4675 78.3488 10.4675C79.4738 10.4675 80.76 10.4675 82.2 10.43C82.9237 10.5838 83.0062 11.63 83.2463 12.1513C83.0513 12.5038 82.81 12.825 82.5225 13.115H72.375C71.2913 13.115 70.1663 13.0775 68.4863 13.0775C67.6425 13.0775 66.6787 13.0775 65.5163 13.115C64.7925 13.1225 64.11 13.0025 62.505 12.5563C62.2727 12.4684 62.0701 12.3164 61.9207 12.1179C61.7713 11.9194 61.6814 11.6826 61.6613 11.435C61.9012 10.5125 62.3063 9.59003 63.0638 9.26753C65.9137 10.2313 69.0413 10.1488 71.8913 10.31Z" fill="black"/>
</svg>
